<svg width="82" height="30" viewBox="0 0 82 30" fill="none" xmlns="http://www.w3.org/2000/svg">
<path d="M12.9982 0.00225542C9.89492 0.00225542 6.66499 0.501875 4.49059 1.85296C0.936956 4.04847 -0.104503 8.33393 0.00808709 12.2816C0.120677 15.6945 1.03547 19.3607 3.45616 21.8799C5.7713 24.2866 10.4931 25.3984 13.7722 25.3984C13.8122 25.3974 13.852 25.4046 13.8892 25.4195C13.9263 25.4343 13.9601 25.4566 13.9884 25.4849C14.0166 25.5132 14.0389 25.5469 14.0538 25.5841C14.0686 25.6212 14.0758 25.661 14.0748 25.701V29.142C14.0739 29.2218 14.0889 29.3009 14.119 29.3747C14.1491 29.4486 14.1936 29.5157 14.25 29.572C14.3064 29.6284 14.3735 29.673 14.4473 29.7031C14.5212 29.7331 14.6003 29.7481 14.68 29.7472H14.7363C14.8581 29.7344 14.9734 29.6854 15.067 29.6065C16.6996 28.1991 18.3392 26.7917 19.9155 25.314C21.5336 23.9566 23.0096 22.4382 24.3205 20.7822C26.8186 17.2637 27.1846 12.2042 26.3612 8.03839C25.559 4.00625 22.7232 1.40963 18.7473 0.572244C16.855 0.189332 14.9289 -0.00163156 12.9982 0.00225542Z" fill="#00C6D7"/>
<path d="M63.0376 29.3321V6.82813C63.0376 6.72548 63.0784 6.62704 63.151 6.55446C63.2235 6.48188 63.322 6.4411 63.4246 6.4411H68.0268C68.1166 6.44188 68.2036 6.47283 68.2738 6.52898C68.344 6.58512 68.3933 6.66321 68.4138 6.75072L68.7234 8.1581C69.3633 7.46209 70.1497 6.91675 71.0258 6.56143C71.902 6.2061 72.846 6.04964 73.79 6.10333C78.0121 6.10333 81.2139 8.80549 81.2139 14.8361C81.2139 20.8667 78.0684 23.6322 73.79 23.6322C72.8412 23.6829 71.8932 23.5195 71.0161 23.1541C70.1391 22.7886 69.3555 22.2306 68.7234 21.5212V29.3321C68.7216 29.4354 68.6792 29.5338 68.6055 29.6062C68.5318 29.6786 68.4326 29.7191 68.3293 29.7191H63.4035C63.3046 29.7137 63.2115 29.6706 63.1434 29.5986C63.0753 29.5266 63.0375 29.4312 63.0376 29.3321ZM68.7234 16.4687C69.2019 18.3897 70.4334 19.2131 71.9744 19.2131C73.9589 19.2131 75.3592 17.9464 75.3592 14.8291C75.3592 11.7117 73.9518 10.4451 71.9744 10.4451C70.3278 10.4451 69.1597 11.2684 68.7234 13.1824V16.4687Z" fill="black"/>
<path d="M29.7742 0.00244141H34.7C34.8045 0.00244141 34.9048 0.0439589 34.9787 0.117861C35.0526 0.191762 35.0941 0.291995 35.0941 0.396507V8.18635C35.7262 7.47695 36.5097 6.91886 37.3868 6.55342C38.2638 6.18798 39.2119 6.02457 40.1606 6.07528C44.4391 6.07528 47.5916 8.84781 47.5916 14.8784C47.5916 20.909 44.3757 23.6253 40.1184 23.6253C39.1745 23.679 38.2304 23.5225 37.3543 23.1672C36.4781 22.8119 35.6917 22.2665 35.0519 21.5705L34.7422 22.9779C34.722 23.0642 34.6738 23.1415 34.605 23.1975C34.5363 23.2535 34.4509 23.2852 34.3622 23.2875H29.7742C29.6697 23.2875 29.5694 23.246 29.4955 23.1721C29.4216 23.0982 29.3801 22.998 29.3801 22.8934V0.396507C29.3801 0.291995 29.4216 0.191762 29.4955 0.117861C29.5694 0.0439589 29.6697 0.00244141 29.7742 0.00244141V0.00244141ZM35.0659 16.5391C35.4741 18.4602 36.6774 19.2765 38.317 19.2765C40.3014 19.2765 41.7088 17.9747 41.7088 14.8995C41.7088 11.8244 40.3014 10.5156 38.317 10.5156C36.7759 10.5156 35.5444 11.3318 35.0659 13.2529V16.5391Z" fill="black"/>
<path d="M48.9146 0.00226913H53.8404C53.9374 0.0127241 54.0271 0.0588138 54.0921 0.131613C54.1571 0.204413 54.1928 0.298742 54.1922 0.396335V22.9144C54.1922 23.0189 54.1507 23.1191 54.0768 23.193C54.0029 23.2669 53.9027 23.3085 53.7982 23.3085H48.8723C48.7678 23.3085 48.6676 23.2669 48.5937 23.193C48.5198 23.1191 48.4783 23.0189 48.4783 22.9144V0.396335C48.478 0.340833 48.4894 0.285889 48.5118 0.235103C48.5341 0.184316 48.567 0.138831 48.6082 0.101629C48.6494 0.0644257 48.698 0.0363433 48.7508 0.0192207C48.8036 0.00209808 48.8594 -0.00367855 48.9146 0.00226913Z" fill="black"/>
<path d="M55.7757 3.92199V0.403544C55.7748 0.351206 55.7843 0.299205 55.8037 0.25058C55.823 0.201954 55.8519 0.157678 55.8886 0.120337C55.9253 0.0829964 55.969 0.0533388 56.0173 0.0330965C56.0656 0.0128543 56.1174 0.00243306 56.1698 0.00244141H61.0956C61.2001 0.00244141 61.3003 0.0439589 61.3742 0.117861C61.4481 0.191762 61.4897 0.291995 61.4897 0.396507V3.91495C61.4897 4.01947 61.4481 4.1197 61.3742 4.1936C61.3003 4.2675 61.2001 4.30902 61.0956 4.30902H56.1698C56.0665 4.30904 55.9673 4.26849 55.8936 4.1961C55.8199 4.12371 55.7775 4.02528 55.7757 3.92199ZM56.1698 6.4412H61.0956C61.1989 6.44118 61.2981 6.48173 61.3718 6.55412C61.4455 6.6265 61.4878 6.72494 61.4897 6.82823V22.8934C61.4897 22.998 61.4481 23.0982 61.3742 23.1721C61.3003 23.246 61.2001 23.2875 61.0956 23.2875H56.1698C56.0652 23.2875 55.965 23.246 55.8911 23.1721C55.8172 23.0982 55.7757 22.998 55.7757 22.8934V6.82823C55.7775 6.72494 55.8199 6.6265 55.8936 6.55412C55.9673 6.48173 56.0665 6.44118 56.1698 6.4412Z" fill="black"/>
<path d="M63.0376 29.3321V6.82813C63.0376 6.72548 63.0784 6.62704 63.151 6.55446C63.2235 6.48188 63.322 6.4411 63.4246 6.4411H68.0268C68.1166 6.44188 68.2036 6.47283 68.2738 6.52898C68.344 6.58512 68.3933 6.66321 68.4138 6.75072L68.7234 8.1581C69.3633 7.46209 70.1497 6.91675 71.0258 6.56143C71.902 6.2061 72.846 6.04964 73.79 6.10333C78.0121 6.10333 81.2139 8.80549 81.2139 14.8361C81.2139 20.8667 78.0684 23.6322 73.79 23.6322C72.8412 23.6829 71.8932 23.5195 71.0161 23.1541C70.1391 22.7886 69.3555 22.2306 68.7234 21.5212V29.3321C68.7216 29.4354 68.6792 29.5338 68.6055 29.6062C68.5318 29.6786 68.4326 29.7191 68.3293 29.7191H63.4035C63.3046 29.7137 63.2115 29.6706 63.1434 29.5986C63.0753 29.5266 63.0375 29.4312 63.0376 29.3321ZM68.7234 16.2716C68.7213 16.4144 68.7403 16.5566 68.7797 16.6938C68.9289 17.4234 69.3315 18.0767 69.9163 18.5378C70.5011 18.9989 71.2302 19.2381 71.9744 19.2131C73.9589 19.2131 75.3592 17.9464 75.3592 14.8291C75.3592 11.7117 73.9518 10.4451 71.9744 10.4451C71.2197 10.3947 70.4731 10.6268 69.8801 11.0963C69.287 11.5658 68.8897 12.2392 68.7656 12.9854C68.7373 13.1077 68.7232 13.2328 68.7234 13.3584V16.2716Z" fill="white"/>
<path d="M29.7742 0.00244141H34.7C34.8045 0.00244141 34.9048 0.0439589 34.9787 0.117861C35.0526 0.191762 35.0941 0.291995 35.0941 0.396507V8.18635C35.7262 7.47695 36.5097 6.91886 37.3868 6.55342C38.2638 6.18798 39.2119 6.02457 40.1606 6.07528C44.4391 6.07528 47.5916 8.84781 47.5916 14.8784C47.5916 20.909 44.3757 23.6253 40.1184 23.6253C39.1745 23.679 38.2304 23.5225 37.3543 23.1672C36.4781 22.8119 35.6917 22.2665 35.0519 21.5705L34.7422 22.9779C34.722 23.0642 34.6738 23.1415 34.605 23.1975C34.5363 23.2535 34.4509 23.2852 34.3622 23.2875H29.7742C29.6697 23.2875 29.5694 23.246 29.4955 23.1721C29.4216 23.0982 29.3801 22.998 29.3801 22.8934V0.396507C29.3801 0.291995 29.4216 0.191762 29.4955 0.117861C29.5694 0.0439589 29.6697 0.00244141 29.7742 0.00244141V0.00244141ZM35.0659 16.3703C35.065 16.4963 35.0815 16.6218 35.1152 16.7432C35.2408 17.4868 35.6376 18.1575 36.229 18.6254C36.8205 19.0933 37.5644 19.3253 38.317 19.2765C40.3014 19.2765 41.7088 17.9747 41.7088 14.8995C41.7088 11.8244 40.3014 10.5156 38.317 10.5156C37.5737 10.4902 36.8454 10.7284 36.2607 11.1881C35.6761 11.6478 35.2729 12.2994 35.1222 13.0277C35.0862 13.1656 35.0673 13.3074 35.0659 13.4499V16.3703Z" fill="white"/>
<path d="M48.9146 0.00226913H53.8404C53.9374 0.0127241 54.0271 0.0588138 54.0921 0.131613C54.1571 0.204413 54.1928 0.298742 54.1922 0.396335V22.9144C54.1922 23.0189 54.1507 23.1191 54.0768 23.193C54.0029 23.2669 53.9027 23.3085 53.7982 23.3085H48.8723C48.7678 23.3085 48.6676 23.2669 48.5937 23.193C48.5198 23.1191 48.4783 23.0189 48.4783 22.9144V0.396335C48.478 0.340833 48.4894 0.285889 48.5118 0.235103C48.5341 0.184316 48.567 0.138831 48.6082 0.101629C48.6494 0.0644257 48.698 0.0363433 48.7508 0.0192207C48.8036 0.00209808 48.8594 -0.00367855 48.9146 0.00226913Z" fill="white"/>
<path d="M55.7757 3.92199V0.403544C55.7748 0.351206 55.7843 0.299205 55.8037 0.25058C55.823 0.201954 55.8519 0.157678 55.8886 0.120337C55.9253 0.0829964 55.969 0.0533388 56.0173 0.0330965C56.0656 0.0128543 56.1174 0.00243306 56.1698 0.00244141H61.0956C61.2001 0.00244141 61.3003 0.0439589 61.3742 0.117861C61.4481 0.191762 61.4897 0.291995 61.4897 0.396507V3.91495C61.4897 4.01947 61.4481 4.1197 61.3742 4.1936C61.3003 4.2675 61.2001 4.30902 61.0956 4.30902H56.1698C56.0665 4.30904 55.9673 4.26849 55.8936 4.1961C55.8199 4.12371 55.7775 4.02528 55.7757 3.92199ZM56.1698 6.4412H61.0956C61.1989 6.44118 61.2981 6.48173 61.3718 6.55412C61.4455 6.6265 61.4878 6.72494 61.4897 6.82823V22.8934C61.4897 22.998 61.4481 23.0982 61.3742 23.1721C61.3003 23.246 61.2001 23.2875 61.0956 23.2875H56.1698C56.0652 23.2875 55.965 23.246 55.8911 23.1721C55.8172 23.0982 55.7757 22.998 55.7757 22.8934V6.82823C55.7775 6.72494 55.8199 6.6265 55.8936 6.55412C55.9673 6.48173 56.0665 6.44118 56.1698 6.4412Z" fill="white"/>
</svg>
